Coordinates
version=1
nRows=10
nColumns=40
inDegrees=yes

Units are S.I. units (second, meters, Newtons, ...)
Angles are in degrees.

endheader
time	pelvis_tilt	pelvis_list	pelvis_rotation	pelvis_tx	pelvis_ty	pelvis_tz	hip_flexion_r	hip_adduction_r	hip_rotation_r	knee_angle_r	knee_angle_r_beta	ankle_angle_r	subtalar_angle_r	mtp_angle_r	hip_flexion_l	hip_adduction_l	hip_rotation_l	knee_angle_l	knee_angle_l_beta	ankle_angle_l	subtalar_angle_l	mtp_angle_l	lumbar_extension	lumbar_bending	lumbar_rotation	arm_flex_r	arm_add_r	arm_rot_r	elbow_flex_r	pro_sup_r	wrist_flex_r	wrist_dev_r	arm_flex_l	arm_add_l	arm_rot_l	elbow_flex_l	pro_sup_l	wrist_flex_l	wrist_dev_l
     56.19250000	     -4.34315481	     -6.39414517	      2.80193873	      1.03133241	      0.93168444	      0.50421443	      8.08797522	      6.27343588	    -16.39379269	     10.33681601	     10.33681601	      9.31926878	      3.81838824	     -5.10433175	     40.62638422	    -12.20805569	      3.65291035	     64.04108579	     64.04108579	      5.67842120	    -18.55213939	     10.27231080	    -11.21012888	      6.49448344	      4.15487242	     27.98365075	    -16.85561578	      6.37580237	     54.79741724	     44.99746950	      0.00000000	      0.00000000	      3.21302315	     -9.49010135	      6.52041381	     33.07427372	     46.50438200	      0.00000000	      0.00000000
     56.20471429	     -4.27855460	     -6.36318410	      3.11605111	      1.03034975	      0.93189763	      0.50406973	      7.16941645	      6.40145648	    -16.36349402	      9.53270345	      9.53270345	      9.38650760	      3.81172255	     -5.09973436	     41.34913669	    -11.89384207	      3.44694319	     61.32327377	     61.32327377	      6.80724101	    -18.59360768	     12.72836456	    -11.41419330	      6.45487340	      4.00455436	     29.36799261	    -17.50324942	      7.60171700	     60.00941032	     44.79827415	      0.00000000	      0.00000000	      2.47595344	     -9.28562689	      7.37648486	     29.90364103	     46.32116130	      0.00000000	      0.00000000
     56.21692857	     -4.31240849	     -6.26499866	      3.35102308	      1.02936499	      0.93178941	      0.50383969	      6.58563286	      6.36651531	    -16.36761120	      9.21082923	      9.21082923	      9.67039699	      3.79584638	     -5.12511782	     41.87038653	    -11.56429520	      3.07514046	     58.14148284	     58.14148284	      7.18573134	    -18.63303092	     13.17384583	    -11.45307176	      6.29801742	      3.84113843	     31.65516556	    -17.33507815	      7.31492301	     61.90535853	     44.76069923	      0.00000000	      0.00000000	      0.97060838	     -9.24661593	      7.66044272	     29.01319523	     46.24283980	      0.00000000	      0.00000000
     56.22914286	     -4.37550844	     -6.24536975	      3.57089084	      1.02843208	      0.93144481	      0.50345223	      6.05070966	      6.39809891	    -16.40212223	      8.91983931	      8.91983931	      9.97168720	      3.82792311	     -5.16755337	     42.25739837	    -11.21305163	      2.87323949	     54.72794419	     54.72794419	      7.56424617	    -18.54200336	     13.58227094	    -11.45184421	      6.25913385	      3.70616799	     33.85825856	    -17.26502095	      7.17704897	     64.08848745	     44.70730822	      0.00000000	      0.00000000	     -0.52883630	     -9.17372595	      7.99846724	     28.23542388	     46.15474031	      0.00000000	      0.00000000
     56.24135714	     -4.40593124	     -6.26659294	      3.78995073	      1.02762506	      0.93096025	      0.50291652	      5.50599960	      6.45252239	    -16.49955410	      8.69818601	      8.69818601	     10.31979071	      3.94130291	     -5.23556078	     42.41266644	    -10.81207382	      2.85033061	     51.10116064	     51.10116064	      7.89726758	    -18.33391975	     13.88176590	    -11.49306604	      6.29005534	      3.50317421	     35.85747840	    -17.21411775	      7.25073007	     66.86257579	     44.62791539	      0.00000000	      0.00000000	     -2.09190517	     -9.11794199	      8.49380775	     27.59085622	     46.03484752	      0.00000000	      0.00000000
     56.25357143	     -4.48194547	     -6.34429419	      3.98513612	      1.02697746	      0.93017270	      0.50220448	      5.05399655	      6.51852801	    -16.74031849	      8.60000504	      8.60000504	     10.84209583	      4.36090519	     -5.27292959	     42.41992712	    -10.44416619	      2.93814278	     47.30070737	     47.30070737	      8.04278288	    -17.87314765	     13.37749221	    -11.52116857	      6.40084095	      4.00606917	     37.05157314	    -18.44410126	      7.80108511	     71.60304887	     44.49113276	      0.00000000	      0.00000000	     -3.51086982	     -9.19219154	     10.26011279	     27.86076417	     45.67278130	      0.00000000	      0.00000000
     56.26578571	     -4.50968698	     -6.37861350	      4.08541819	      1.02648270	      0.92941637	      0.50154165	      4.58420667	      6.55969910	    -16.71089484	      8.57138689	      8.57138689	     11.21835104	      4.30973138	     -5.37566156	     42.19093333	    -10.08177654	      3.04352718	     43.48857697	     43.48857697	      8.40148155	    -17.08961143	     13.61788968	    -11.45490274	      6.43413392	      4.11852400	     39.19125981	    -18.31523384	      7.47257934	     73.21472525	     44.46526772	      0.00000000	      0.00000000	     -4.91536227	     -9.13667210	     10.67080171	     27.44655064	     45.57581628	      0.00000000	      0.00000000
     56.27800000	     -4.49125345	     -6.46963066	      4.21408564	      1.02627252	      0.92852013	      0.50070384	      4.04498358	      6.65344993	    -16.75479310	      8.54227227	      8.54227227	     11.70012396	      4.37663991	     -5.49286753	     41.74544442	     -9.78165075	      3.20432734	     39.66906741	     39.66906741	      8.81121029	    -16.03045509	     13.70718042	    -11.49027498	      6.57485473	      3.93342802	     41.12853877	    -18.01031057	      7.31895083	     75.46395381	     44.41352578	      0.00000000	      0.00000000	     -6.52785103	     -9.08370481	     11.22270018	     27.25566121	     45.44785360	      0.00000000	      0.00000000
     56.29021429	     -4.44154004	     -6.66283268	      4.31582807	      1.02640448	      0.92741848	      0.49981005	      3.48761943	      6.82270891	    -16.98901795	      8.61181226	      8.61181226	     12.35605153	      4.85343497	     -5.22387616	     41.16405092	     -9.63251122	      3.42112406	     35.99807297	     35.99807297	      8.81985645	    -14.79546229	     12.61695723	    -11.55003621	      6.77868442	      4.49885070	     42.12480410	    -18.89728525	      7.28198577	     79.99765342	     44.34252580	      0.00000000	      0.00000000	     -8.50614787	     -9.82416078	     14.84066460	     29.66778779	     44.78593668	      0.00000000	      0.00000000
     56.30242857	     -4.39450612	     -6.78798377	      4.36541396	      1.02679283	      0.92628235	      0.49887802	      2.90303175	      6.95183703	    -16.86714322	      8.63877946	      8.63877946	     12.87904868	      4.81551843	     -5.39302056	     40.46887825	     -9.50630127	      3.40409883	     32.59981640	     32.59981640	      9.31022309	    -13.33235314	     12.95316923	    -11.45347435	      6.95873262	      4.40112645	     43.97856841	    -18.48783930	      7.00306545	     81.43821191	     44.32146805	      0.00000000	      0.00000000	     -9.95046814	     -9.72844207	     15.38834295	     29.32413749	     44.68196723	      0.00000000	      0.00000000
